<svg width="128" height="128" viewBox="0 0 128 128" xmlns="http://www.w3.org/2000/svg">
  <!-- Background gradient -->
  <defs>
    <linearGradient id="grad" x1="0%" y1="0%" x2="100%" y2="100%">
      <stop offset="0%" style="stop-color:#667eea;stop-opacity:1" />
      <stop offset="100%" style="stop-color:#764ba2;stop-opacity:1" />
    </linearGradient>
  </defs>
  
  <!-- Background circle -->
  <circle cx="64" cy="64" r="60" fill="url(#grad)"/>
  
  <!-- Shopping bag -->
  <path d="M 40 50 L 40 90 Q 40 95 45 95 L 83 95 Q 88 95 88 90 L 88 50 Z" 
        fill="white" opacity="0.9"/>
  <path d="M 45 50 L 45 45 Q 45 35 55 35 L 73 35 Q 83 35 83 45 L 83 50" 
        fill="none" stroke="white" stroke-width="3" opacity="0.9"/>
  
  <!-- Smiley face -->
  <circle cx="64" cy="65" r="18" fill="#667eea"/>
  <circle cx="58" cy="60" r="2" fill="white"/>
  <circle cx="70" cy="60" r="2" fill="white"/>
  <path d="M 56 68 Q 64 74 72 68" fill="none" stroke="white" stroke-width="2" stroke-linecap="round"/>
  
  <!-- AI sparkle -->
  <circle cx="92" cy="38" r="3" fill="#FFD700"/>
  <path d="M 92 32 L 92 44 M 86 38 L 98 38" stroke="#FFD700" stroke-width="2"/>
</svg>
